<svg width="21" height="21" viewBox="0 0 21 21" fill="none" xmlns="http://www.w3.org/2000/svg">
<path d="M1.12988 1.42H3.12988L3.52988 3.42M3.52988 3.42H19.1299L15.1299 11.42H5.12988M3.52988 3.42L5.12988 11.42M5.12988 11.42L2.83688 13.713C2.20688 14.343 2.65288 15.42 3.54388 15.42H15.1299M15.1299 15.42C14.5994 15.42 14.0907 15.6307 13.7157 16.0058C13.3406 16.3809 13.1299 16.8896 13.1299 17.42C13.1299 17.9504 13.3406 18.4591 13.7157 18.8342C14.0907 19.2093 14.5994 19.42 15.1299 19.42C15.6603 19.42 16.169 19.2093 16.5441 18.8342C16.9192 18.4591 17.1299 17.9504 17.1299 17.42C17.1299 16.8896 16.9192 16.3809 16.5441 16.0058C16.169 15.6307 15.6603 15.42 15.1299 15.42ZM7.12988 17.42C7.12988 17.9504 6.91917 18.4591 6.5441 18.8342C6.16902 19.2093 5.66032 19.42 5.12988 19.42C4.59945 19.42 4.09074 19.2093 3.71567 18.8342C3.3406 18.4591 3.12988 17.9504 3.12988 17.42C3.12988 16.8896 3.3406 16.3809 3.71567 16.0058C4.09074 15.6307 4.59945 15.42 5.12988 15.42C5.66032 15.42 6.16902 15.6307 6.5441 16.0058C6.91917 16.3809 7.12988 16.8896 7.12988 17.42Z" stroke="#9CA3AF" stroke-width="2" stroke-linecap="round" stroke-linejoin="round"/>
</svg>
