<svg width="9" height="6" viewBox="0 0 9 6" fill="none" xmlns="http://www.w3.org/2000/svg">
<path fill-rule="evenodd" clip-rule="evenodd" d="M0.234412 0.834441C0.384435 0.684464 0.587881 0.600211 0.800012 0.600211C1.01214 0.600211 1.21559 0.684464 1.36561 0.834441L4.00001 3.46884L6.63441 0.834441C6.70821 0.758033 6.79649 0.697087 6.89409 0.655159C6.99169 0.613232 7.09667 0.591163 7.20289 0.59024C7.30911 0.589317 7.41446 0.609558 7.51278 0.649783C7.61109 0.690008 7.70041 0.74941 7.77553 0.824524C7.85064 0.899639 7.91004 0.98896 7.95027 1.08728C7.99049 1.18559 8.01074 1.29094 8.00981 1.39716C8.00889 1.50339 7.98682 1.60836 7.94489 1.70596C7.90297 1.80357 7.84202 1.89184 7.76561 1.96564L4.56561 5.16564C4.41559 5.31562 4.21214 5.39987 4.00001 5.39987C3.78788 5.39987 3.58443 5.31562 3.43441 5.16564L0.234412 1.96564C0.0844355 1.81562 0.000183105 1.61217 0.000183105 1.40004C0.000183105 1.18791 0.0844355 0.984463 0.234412 0.834441Z" fill="#9CA3AF"/>
</svg>
