<svg width="20" height="20" viewBox="0 0 20 20" fill="none" xmlns="http://www.w3.org/2000/svg">
<path fill-rule="evenodd" clip-rule="evenodd" d="M10 0.339996C4.477 0.339996 0 4.824 0 10.357C0 14.782 2.865 18.537 6.839 19.861C7.339 19.953 7.521 19.644 7.521 19.378C7.521 19.141 7.513 18.51 7.508 17.675C4.726 18.28 4.139 16.332 4.139 16.332C3.685 15.174 3.029 14.866 3.029 14.866C2.121 14.246 3.098 14.258 3.098 14.258C4.101 14.328 4.629 15.29 4.629 15.29C5.521 16.82 6.97 16.378 7.539 16.122C7.631 15.475 7.889 15.034 8.175 14.784C5.955 14.531 3.62 13.671 3.62 9.833C3.62 8.74 4.01 7.845 4.649 7.145C4.546 6.892 4.203 5.873 4.747 4.495C4.747 4.495 5.587 4.225 7.497 5.521C8.31277 5.29851 9.15444 5.18519 10 5.184C10.85 5.188 11.705 5.299 12.504 5.521C14.413 4.225 15.251 4.494 15.251 4.494C15.797 5.873 15.453 6.892 15.351 7.145C15.991 7.845 16.379 8.74 16.379 9.833C16.379 13.681 14.04 14.528 11.813 14.776C12.172 15.085 12.491 15.696 12.491 16.631C12.491 17.969 12.479 19.05 12.479 19.378C12.479 19.646 12.659 19.958 13.167 19.86C15.1583 19.1921 16.8893 17.9153 18.1155 16.21C19.3416 14.5048 20.0009 12.4573 20 10.357C20 4.824 15.522 0.339996 10 0.339996Z" fill="#9CA3AF"/>
</svg>
