<svg width="20" height="17" viewBox="0 0 20 17" fill="none" xmlns="http://www.w3.org/2000/svg">
<path d="M6.29 16.591C13.837 16.591 17.965 10.338 17.965 4.91598C17.965 4.73798 17.965 4.56098 17.953 4.38598C18.7562 3.80451 19.4493 3.0846 20 2.25998C19.2511 2.59199 18.4566 2.80974 17.643 2.90598C18.4996 2.39304 19.1408 1.58633 19.447 0.635984C18.6417 1.11387 17.7607 1.45071 16.842 1.63198C16.2234 0.973749 15.405 0.537818 14.5136 0.391689C13.6222 0.245559 12.7075 0.397383 11.9111 0.823652C11.1147 1.24992 10.4811 1.92686 10.1083 2.74964C9.7355 3.57243 9.64437 4.49517 9.849 5.37498C8.21759 5.29323 6.6216 4.86931 5.16465 4.13075C3.70769 3.3922 2.42233 2.35551 1.392 1.08798C0.867318 1.99119 0.706589 3.0604 0.942536 4.07795C1.17848 5.09549 1.79337 5.98486 2.662 6.56498C2.00926 6.54609 1.37063 6.37048 0.8 6.05298V6.10498C0.800389 7.05228 1.1284 7.97029 1.7284 8.70334C2.3284 9.43639 3.16347 9.93937 4.092 10.127C3.48781 10.2917 2.85389 10.3156 2.239 10.197C2.50116 11.0125 3.01168 11.7256 3.69913 12.2366C4.38658 12.7476 5.21657 13.031 6.073 13.047C5.22212 13.7156 4.24779 14.2098 3.20573 14.5015C2.16367 14.7932 1.07432 14.8766 0 14.747C1.8766 15.9513 4.06019 16.5901 6.29 16.587" fill="#9CA3AF"/>
</svg>
