<svg width="20" height="34" viewBox="0 0 20 34" fill="none" xmlns="http://www.w3.org/2000/svg">
<path fill-rule="evenodd" clip-rule="evenodd" d="M15.9994 4.51193L11.9998 6.76806L8.00025 9.0239L4.00032 11.28V15.7919V18.0481V20.3038V22.56V24.8161L8.00025 22.56L11.9998 20.3038V18.0481V15.7919L8.00025 18.0481V13.5362L11.9998 11.28L15.9994 9.0239V11.28V13.5362V15.7919V18.0481V20.3038V22.56L11.9998 24.8161L8.00025 27.0719L4.00032 29.3281L0.000732422 31.5839L4.00032 33.84L8.00025 31.5839L11.9998 29.3281L15.9994 27.0719L19.9993 24.8161V20.3038V15.7919V11.28V9.54949V6.76806V2.25613L15.9994 0V4.51193Z" fill="black"/>
</svg>
